<svg width="30" height="30" viewBox="0 0 30 30" fill="none" xmlns="http://www.w3.org/2000/svg">
<g id="IC/social/logoApple">
<path id="Vector" d="M27.5 22.0088C26.5175 24.8588 23.5763 29.905 20.5462 29.96C18.5363 29.9988 17.89 28.7687 15.5925 28.7687C13.2963 28.7687 12.5775 29.9225 10.6775 29.9975C7.4625 30.1212 2.5 22.7138 2.5 16.2537C2.5 10.32 6.635 7.37875 10.2475 7.325C12.185 7.29 14.015 8.63125 15.1962 8.63125C16.3825 8.63125 18.605 7.01875 20.9412 7.255C21.9188 7.29625 24.665 7.64875 26.4275 10.2262C21.7513 13.2787 22.48 19.6625 27.5 22.0088ZM20.9725 0C17.44 0.1425 14.5575 3.84875 14.96 6.91375C18.225 7.1675 21.3575 3.5075 20.9725 0Z" fill="#12121D"/>
</g>
</svg>
