<svg width="25" height="25" viewBox="0 0 25 25" fill="none" xmlns="http://www.w3.org/2000/svg">
<g id="Bold / Time / Calendar Minimalistic">
<g id="Vector">
<path d="M22.9167 14.5837V12.5003C22.9167 11.6263 22.9167 10.8496 22.9033 10.1566H2.09681C2.08337 10.8496 2.08337 11.6263 2.08337 12.5003V14.5837C2.08337 18.512 2.08337 20.4762 3.30376 21.6966C4.52415 22.917 6.48834 22.917 10.4167 22.917H14.5834C18.5117 22.917 20.4759 22.917 21.6963 21.6966C22.9167 20.4762 22.9167 18.512 22.9167 14.5837Z" fill="#2F2F2F"/>
<path d="M8.07296 2.60449C8.07296 2.17302 7.72318 1.82324 7.29171 1.82324C6.86024 1.82324 6.51046 2.17302 6.51046 2.60449V4.24955C5.01116 4.36961 4.02689 4.66426 3.30376 5.38738C2.58064 6.1105 2.28599 7.09477 2.16593 8.59408H22.8341C22.7141 7.09477 22.4194 6.1105 21.6963 5.38738C20.9732 4.66426 19.9889 4.36961 18.4896 4.24955V2.60449C18.4896 2.17302 18.1398 1.82324 17.7084 1.82324C17.2769 1.82324 16.9271 2.17302 16.9271 2.60449V4.18043C16.2341 4.16699 15.4574 4.16699 14.5834 4.16699H10.4167C9.54271 4.16699 8.76594 4.16699 8.07296 4.18043V2.60449Z" fill="#2F2F2F"/>
</g>
</g>
</svg>
