<svg width="19" height="19" viewBox="0 0 19 19" fill="none" xmlns="http://www.w3.org/2000/svg">
<path id="Vector" d="M9.5 0C4.25363 0 0 4.25363 0 9.5C0 11.2822 0.500604 12.9438 1.35449 14.3691L0.0850423 19L4.81494 17.7584C6.19824 18.5448 7.79514 19 9.5 19C14.7464 19 19 14.7464 19 9.5C19 4.25363 14.7464 0 9.5 0ZM6.24829 5.06852C6.40267 5.06852 6.56128 5.06758 6.69824 5.07471C6.86766 5.07867 7.05206 5.09107 7.2286 5.48136C7.43839 5.94528 7.89519 7.10909 7.95378 7.22705C8.01236 7.34501 8.05387 7.48397 7.97233 7.63835C7.89475 7.79668 7.8544 7.89251 7.7404 8.03263C7.62244 8.1688 7.49319 8.33792 7.38631 8.44084C7.26835 8.55879 7.14655 8.68813 7.28271 8.92326C7.41888 9.15838 7.89178 9.92918 8.59082 10.5514C9.48936 11.3542 10.2475 11.6009 10.4834 11.7188C10.7193 11.8368 10.8559 11.8184 10.9921 11.6601C11.1322 11.5057 11.5806 10.976 11.7389 10.7401C11.8933 10.5042 12.0509 10.545 12.2646 10.6226C12.4816 10.7001 13.6384 11.27 13.8743 11.3879C14.1102 11.5059 14.2648 11.5643 14.3242 11.6601C14.3852 11.759 14.3852 12.2301 14.1897 12.7795C13.9942 13.3282 13.0339 13.8587 12.6033 13.8959C12.1686 13.9363 11.763 14.0913 9.77832 13.3099C7.38432 12.367 5.87455 9.91501 5.75659 9.75667C5.63863 9.6023 4.79793 8.48184 4.79793 7.32601C4.79793 6.16622 5.40602 5.59822 5.61898 5.3623C5.83589 5.12639 6.08996 5.06852 6.24829 5.06852Z" fill="#0C0C0C"/>
</svg>
