<svg width="37" height="36" viewBox="0 0 37 36" fill="none" xmlns="http://www.w3.org/2000/svg">
<g id="Interface essential/Camera">
<g id="Group">
<path id="Shape" fill-rule="evenodd" clip-rule="evenodd" d="M10.1256 6.157H26.8984C28.5569 6.15291 30.149 6.8089 31.3232 7.98024C32.4974 9.15158 33.1574 10.742 33.1574 12.4006V23.0377C33.1574 24.6963 32.4974 26.2867 31.3232 27.4581C30.149 28.6294 28.5569 29.2854 26.8984 29.2813H10.1256C8.46699 29.2854 6.87495 28.6294 5.70072 27.4581C4.52649 26.2867 3.86657 24.6963 3.86658 23.0377V12.4006C3.86657 10.742 4.52649 9.15158 5.70072 7.98024C6.87495 6.8089 8.46699 6.15291 10.1256 6.157ZM26.8984 26.9689C29.0424 26.9695 30.7947 25.2582 30.8449 23.1148V12.4006C30.8364 10.227 29.072 8.46942 26.8984 8.46944H10.1256C7.95194 8.46942 6.1875 10.227 6.17901 12.4006V23.0377C6.1875 25.2113 7.95194 26.9689 10.1256 26.9689H26.8984Z" fill="white"/>
<path id="Shape_2" fill-rule="evenodd" clip-rule="evenodd" d="M12.2375 18.1509C12.2375 14.7452 14.9984 11.9844 18.404 11.9844C21.8097 11.9844 24.5705 14.7452 24.5705 18.1509C24.5705 21.5565 21.8097 24.3173 18.404 24.3173C14.9984 24.3173 12.2375 21.5565 12.2375 18.1509ZM14.55 18.1509C14.55 20.2794 16.2755 22.0049 18.404 22.0049C20.5326 22.0049 22.2581 20.2794 22.2581 18.1509C22.2581 16.0223 20.5326 14.2968 18.404 14.2968C16.2755 14.2968 14.55 16.0223 14.55 18.1509Z" fill="white"/>
<rect id="Rectangle" x="24.5706" y="10.4274" width="3.08324" height="3.09866" rx="0.5" fill="white"/>
</g>
</g>
</svg>
