<svg width="14" height="16" viewBox="0 0 14 16" fill="none" xmlns="http://www.w3.org/2000/svg">
<g id="User-Outline">
<g id="Shape">
<path fill-rule="evenodd" clip-rule="evenodd" d="M13.3167 11.5325L13.5167 12.3875C13.7062 13.1267 13.5191 13.9034 13.0064 14.5056C12.4937 15.1078 11.709 15.4724 10.8667 15.5H3.13334C2.29099 15.4724 1.50631 15.1078 0.99363 14.5056C0.480945 13.9034 0.293813 13.1267 0.483341 12.3875L0.683341 11.5325C0.91337 10.3751 2.01886 9.52452 3.32501 9.5H10.675C11.9812 9.52452 13.0866 10.3751 13.3167 11.5325ZM10.8667 14.3675C11.2898 14.3631 11.6881 14.1866 11.95 13.8875V13.895C12.2714 13.5321 12.3966 13.0593 12.2917 12.605L12.0917 11.75C11.9807 11.1164 11.3872 10.6419 10.675 10.6175H3.32501C2.61281 10.6419 2.01931 11.1164 1.90834 11.75L1.70834 12.605C1.60597 13.0569 1.73106 13.5265 2.05001 13.8875C2.31195 14.1866 2.71019 14.3631 3.13334 14.3675H10.8667Z" fill="black"/>
<path d="M13.5167 12.3875L13.2732 12.4445L13.2745 12.4496L13.5167 12.3875ZM13.3167 11.5325L13.0713 11.5813L13.0732 11.5894L13.3167 11.5325ZM13.0064 14.5056L13.1967 14.6677L13.0064 14.5056ZM10.8667 15.5V15.7501L10.8749 15.7499L10.8667 15.5ZM3.13334 15.5L3.12516 15.75H3.13334V15.5ZM0.483341 12.3875L0.725562 12.4496L0.726769 12.4444L0.483341 12.3875ZM0.683341 11.5325L0.926907 11.5895L0.928545 11.5812L0.683341 11.5325ZM3.32501 9.5V9.24996L3.32032 9.25004L3.32501 9.5ZM10.675 9.5L10.6797 9.25H10.675V9.5ZM11.95 13.8875H12.2V13.2225L11.7619 13.7228L11.95 13.8875ZM10.8667 14.3675V14.6175L10.8693 14.6175L10.8667 14.3675ZM11.95 13.895H11.7V14.5543L12.1372 14.0608L11.95 13.895ZM12.2917 12.605L12.5353 12.5487L12.5351 12.5481L12.2917 12.605ZM12.0917 11.75L11.845 11.7932L11.8482 11.8069L12.0917 11.75ZM10.675 10.6175L10.6836 10.3675H10.675V10.6175ZM3.32501 10.6175V10.3674L3.31644 10.3676L3.32501 10.6175ZM1.90834 11.75L2.15216 11.807L2.1546 11.7931L1.90834 11.75ZM1.70834 12.605L1.46491 12.5481L1.46452 12.5498L1.70834 12.605ZM2.05001 13.8875L2.23809 13.7228L2.23737 13.722L2.05001 13.8875ZM3.13334 14.3675L3.13073 14.6175H3.13334V14.3675ZM13.7601 12.3306L13.5601 11.4756L13.0732 11.5894L13.2732 12.4444L13.7601 12.3306ZM13.1967 14.6677C13.7598 14.0063 13.9694 13.1466 13.7588 12.3254L13.2745 12.4496C13.443 13.1068 13.2783 13.8006 12.816 14.3435L13.1967 14.6677ZM10.8749 15.7499C11.7824 15.7202 12.6351 15.3273 13.1967 14.6677L12.816 14.3435C12.3523 14.8882 11.6357 15.2247 10.8585 15.2501L10.8749 15.7499ZM3.13334 15.75H10.8667V15.25H3.13334V15.75ZM0.803277 14.6677C1.36488 15.3273 2.21763 15.7202 3.12516 15.7499L3.14152 15.2501C2.36434 15.2247 1.64775 14.8882 1.18398 14.3435L0.803277 14.6677ZM0.241174 12.3254C0.0306124 13.1466 0.240196 14.0063 0.803277 14.6677L1.18398 14.3435C0.721695 13.8006 0.557013 13.1068 0.725507 12.4496L0.241174 12.3254ZM0.439912 11.4756L0.239912 12.3306L0.726769 12.4444L0.926769 11.5894L0.439912 11.4756ZM3.32032 9.25004C1.9146 9.27643 0.694398 10.1944 0.438136 11.4838L0.928545 11.5812C1.13234 10.5558 2.12312 9.7726 3.3297 9.74996L3.32032 9.25004ZM10.675 9.25H3.32501V9.75H10.675V9.25ZM13.5619 11.4838C13.3056 10.1944 12.0854 9.27643 10.6797 9.25004L10.6703 9.74996C11.8769 9.7726 12.8677 10.5558 13.0715 11.5812L13.5619 11.4838ZM11.7619 13.7228C11.5502 13.9646 11.2212 14.1138 10.8641 14.1175L10.8693 14.6175C11.3584 14.6124 11.826 14.4086 12.1381 14.0522L11.7619 13.7228ZM12.2 13.895V13.8875H11.7V13.895H12.2ZM12.0481 12.6613C12.134 13.0332 12.0332 13.4241 11.7629 13.7292L12.1372 14.0608C12.5097 13.6402 12.6593 13.0855 12.5353 12.5487L12.0481 12.6613ZM11.8482 11.8069L12.0482 12.6619L12.5351 12.5481L12.3351 11.6931L11.8482 11.8069ZM10.6664 10.8674C11.2787 10.8884 11.7578 11.293 11.8454 11.7931L12.3379 11.7069C12.2036 10.9397 11.4957 10.3955 10.6836 10.3676L10.6664 10.8674ZM3.32501 10.8675H10.675V10.3675H3.32501V10.8675ZM2.1546 11.7931C2.24218 11.293 2.72128 10.8884 3.33358 10.8674L3.31644 10.3676C2.50435 10.3955 1.79644 10.9397 1.66209 11.7069L2.1546 11.7931ZM1.95177 12.6619L2.15177 11.8069L1.66491 11.6931L1.46491 12.5481L1.95177 12.6619ZM2.23737 13.722C1.96914 13.4184 1.86837 13.0302 1.95217 12.6602L1.46452 12.5498C1.34358 13.0837 1.49298 13.6346 1.86265 14.053L2.23737 13.722ZM3.13595 14.1175C2.77877 14.1138 2.44987 13.9646 2.23809 13.7228L1.86193 14.0522C2.17404 14.4086 2.6416 14.6124 3.13073 14.6175L3.13595 14.1175ZM10.8667 14.1175H3.13334V14.6175H10.8667V14.1175Z" fill="black"/>
</g>
<g id="Shape_2">
<path fill-rule="evenodd" clip-rule="evenodd" d="M7.41665 8.00001H6.58332C4.74237 8.00001 3.24998 6.65687 3.24998 5.00001V3.02001C3.24776 2.35105 3.54205 1.70892 4.06763 1.23589C4.59321 0.762868 5.3067 0.498011 6.04998 0.500011H7.94998C8.69327 0.498011 9.40675 0.762868 9.93234 1.23589C10.4579 1.70892 10.7522 2.35105 10.75 3.02001V5.00001C10.75 6.65687 9.2576 8.00001 7.41665 8.00001ZM6.04998 1.62501C5.19394 1.62501 4.49998 2.24957 4.49998 3.02001V5.00001C4.49998 6.03554 5.43272 6.87501 6.58331 6.87501H7.41665C8.56724 6.87501 9.49998 6.03554 9.49998 5.00001V3.02001C9.49998 2.65003 9.33668 2.29521 9.046 2.03359C8.75531 1.77198 8.36106 1.62501 7.94998 1.62501H6.04998Z" fill="black"/>
<path d="M3.24998 3.02001H3.49998L3.49998 3.01918L3.24998 3.02001ZM4.06763 1.23589L4.23487 1.42172H4.23487L4.06763 1.23589ZM6.04998 0.500011L6.04931 0.750011H6.04998V0.500011ZM7.94998 0.500011V0.750012L7.95066 0.75001L7.94998 0.500011ZM9.93234 1.23589L10.0996 1.05007V1.05007L9.93234 1.23589ZM10.75 3.02001L10.5 3.01918V3.02001H10.75ZM6.58332 8.25001H7.41665V7.75001H6.58332V8.25001ZM2.99998 5.00001C2.99998 6.81906 4.62972 8.25001 6.58332 8.25001V7.75001C4.85501 7.75001 3.49998 6.49467 3.49998 5.00001H2.99998ZM2.99998 3.02001V5.00001H3.49998V3.02001H2.99998ZM3.90039 1.05007C3.32532 1.56763 2.99751 2.27626 2.99998 3.02084L3.49998 3.01918C3.49801 2.42585 3.75877 1.85021 4.23487 1.42172L3.90039 1.05007ZM6.05065 0.250012C5.24885 0.247855 4.47457 0.533306 3.90039 1.05007L4.23487 1.42172C4.71186 0.992431 5.36454 0.748168 6.04931 0.75001L6.05065 0.250012ZM7.94998 0.250011H6.04998V0.750011H7.94998V0.250011ZM10.0996 1.05007C9.52539 0.533306 8.75111 0.247855 7.94931 0.250012L7.95066 0.75001C8.63542 0.748168 9.28811 0.992431 9.76509 1.42172L10.0996 1.05007ZM11 3.02084C11.0025 2.27626 10.6746 1.56763 10.0996 1.05007L9.76509 1.42172C10.2412 1.85021 10.502 2.42585 10.5 3.01918L11 3.02084ZM11 5.00001V3.02001H10.5V5.00001H11ZM7.41665 8.25001C9.37024 8.25001 11 6.81906 11 5.00001H10.5C10.5 6.49467 9.14496 7.75001 7.41665 7.75001V8.25001ZM4.74998 3.02001C4.74998 2.41177 5.30658 1.87501 6.04998 1.87501V1.37501C5.08129 1.37501 4.24998 2.08737 4.24998 3.02001H4.74998ZM4.74998 5.00001V3.02001H4.24998V5.00001H4.74998ZM6.58331 6.62501C5.54536 6.62501 4.74998 5.87335 4.74998 5.00001H4.24998C4.24998 6.19774 5.32008 7.12501 6.58331 7.12501V6.62501ZM7.41665 6.62501H6.58331V7.12501H7.41665V6.62501ZM9.24998 5.00001C9.24998 5.87335 8.4546 6.62501 7.41665 6.62501V7.12501C8.67988 7.12501 9.74998 6.19774 9.74998 5.00001H9.24998ZM9.24998 3.02001V5.00001H9.74998V3.02001H9.24998ZM8.87875 2.21942C9.12015 2.43667 9.24998 2.72534 9.24998 3.02001H9.74998C9.74998 2.57472 9.5532 2.15374 9.21324 1.84777L8.87875 2.21942ZM7.94998 1.87501C8.30277 1.87501 8.63649 2.00138 8.87875 2.21942L9.21324 1.84777C8.87414 1.54258 8.41936 1.37501 7.94998 1.37501V1.87501ZM6.04998 1.87501H7.94998V1.37501H6.04998V1.87501Z" fill="black"/>
</g>
</g>
</svg>
