<svg width="17" height="17" viewBox="0 0 17 17" fill="none" xmlns="http://www.w3.org/2000/svg">
<g id="Close Square">
<g id="Iconly/Light-Outline/Close-Square">
<g id="Close-Square">
<path id="Combined-Shape" fill-rule="evenodd" clip-rule="evenodd" d="M5.13709 3.22883L8.49902 6.58991L11.8591 3.23261C12.3866 2.70525 13.2399 2.70525 13.7674 3.23261C14.2949 3.75998 14.2949 4.61311 13.7674 5.14048L10.4073 8.49777L13.771 11.8628C14.2985 12.3902 14.2985 13.2433 13.771 13.7707C13.5082 14.0353 13.1607 14.1666 12.8169 14.1666C12.4712 14.1666 12.1256 14.0353 11.8627 13.7707L8.49902 10.4056L5.14069 13.7655C4.87786 14.03 4.53222 14.1614 4.18657 14.1614C3.84093 14.1614 3.49529 14.03 3.23245 13.7655C2.70499 13.2381 2.70499 12.385 3.23245 11.8576L6.59078 8.49777L3.22885 5.1367C2.70139 4.60933 2.70139 3.7562 3.22885 3.22883C3.75812 2.70147 4.61143 2.70147 5.13709 3.22883Z" fill="white"/>
</g>
</g>
</g>
</svg>
