<svg width="28" height="31" viewBox="0 0 28 31" fill="none" xmlns="http://www.w3.org/2000/svg">
<g id="Group 805">
<path id="Vector 426" d="M3.34543 2.18151C1.80693 -0.973237 1.15983 6.0176 3.67579 7.7566L7.01176 4.94873C5.1368 4.46617 4.18773 3.90866 3.34543 2.18151Z" fill="#F54E44" stroke="black" stroke-width="0.84206"/>
<path id="Vector 421" d="M24.7852 2.18151C26.3237 -0.973237 26.9708 6.0176 24.4548 7.7566L21.1189 4.94873C22.9938 4.46617 23.9429 3.90866 24.7852 2.18151Z" fill="#F54E44" stroke="black" stroke-width="0.84206"/>
<circle id="Ellipse 454" cx="14.1059" cy="16.2885" r="13.473" fill="#FFEEEE" stroke="black" stroke-width="0.84206"/>
<g id="Ellipse 455">
<mask id="path-4-inside-1_457_1730" fill="white">
<path d="M21.5441 18.5334C21.5441 19.289 21.3517 20.0372 20.9779 20.7354C20.6041 21.4335 20.0562 22.0678 19.3655 22.6021C18.6748 23.1364 17.8548 23.5603 16.9524 23.8494C16.0499 24.1386 15.0827 24.2874 14.1059 24.2874C13.1291 24.2874 12.1619 24.1386 11.2594 23.8494C10.357 23.5603 9.53702 23.1364 8.84632 22.6021C8.15562 22.0678 7.60773 21.4335 7.23392 20.7354C6.86012 20.0372 6.66772 19.289 6.66772 18.5334L14.1059 18.5334H21.5441Z"/>
</mask>
<path d="M21.5441 18.5334C21.5441 19.289 21.3517 20.0372 20.9779 20.7354C20.6041 21.4335 20.0562 22.0678 19.3655 22.6021C18.6748 23.1364 17.8548 23.5603 16.9524 23.8494C16.0499 24.1386 15.0827 24.2874 14.1059 24.2874C13.1291 24.2874 12.1619 24.1386 11.2594 23.8494C10.357 23.5603 9.53702 23.1364 8.84632 22.6021C8.15562 22.0678 7.60773 21.4335 7.23392 20.7354C6.86012 20.0372 6.66772 19.289 6.66772 18.5334L14.1059 18.5334H21.5441Z" stroke="black" stroke-width="1.68412" mask="url(#path-4-inside-1_457_1730)"/>
</g>
<path id="Vector 425" d="M2.45776 11.376L14.2466 12.4987L25.7548 11.5545" stroke="black" stroke-width="0.84206" stroke-linecap="round"/>
<path id="Rectangle 2058" d="M6.52623 12.0562C6.45289 11.5485 6.84667 11.0938 7.35964 11.0938H12.7126C13.2256 11.0938 13.6194 11.5485 13.546 12.0562L13.0595 15.4244C12.9997 15.8387 12.6447 16.1461 12.2261 16.1461H7.84616C7.42761 16.1461 7.07259 15.8387 7.01275 15.4244L6.52623 12.0562Z" fill="black"/>
<path id="Rectangle 2059" d="M14.9466 12.0562C14.8733 11.5485 15.2671 11.0938 15.78 11.0938H21.133C21.646 11.0938 22.0398 11.5485 21.9665 12.0562L21.4799 15.4244C21.4201 15.8387 21.0651 16.1461 20.6465 16.1461H16.2666C15.848 16.1461 15.493 15.8387 15.4332 15.4244L14.9466 12.0562Z" fill="black"/>
<rect id="Rectangle 2060" x="12.001" y="12.2178" width="3.36824" height="1.12275" fill="black"/>
</g>
</svg>
