<svg width="28" height="28" viewBox="0 0 28 28" fill="none" xmlns="http://www.w3.org/2000/svg">
<g id="Bold / Money / Dollar">
<g id="Subtract">
<path d="M13.125 9.15507C12.0332 9.45363 11.375 10.2915 11.375 11.083C11.375 11.8745 12.0332 12.7124 13.125 13.0109V9.15507Z" fill="#2F2F2F"/>
<path d="M14.875 14.9884V18.8443C15.9669 18.5457 16.625 17.7079 16.625 16.9163C16.625 16.1248 15.9669 15.287 14.875 14.9884Z" fill="#2F2F2F"/>
<path fill-rule="evenodd" clip-rule="evenodd" d="M25.6667 13.9997C25.6667 20.443 20.4434 25.6663 14 25.6663C7.55672 25.6663 2.33337 20.443 2.33337 13.9997C2.33337 7.55635 7.55672 2.33301 14 2.33301C20.4434 2.33301 25.6667 7.55635 25.6667 13.9997ZM14 6.12467C14.4833 6.12467 14.875 6.51643 14.875 6.99967V7.3692C16.7772 7.70979 18.375 9.13889 18.375 11.083C18.375 11.5663 17.9833 11.958 17.5 11.958C17.0168 11.958 16.625 11.5663 16.625 11.083C16.625 10.2915 15.9669 9.45363 14.875 9.15507V13.2025C16.7772 13.5431 18.375 14.9722 18.375 16.9163C18.375 18.8605 16.7772 20.2896 14.875 20.6301V20.9997C14.875 21.4829 14.4833 21.8747 14 21.8747C13.5168 21.8747 13.125 21.4829 13.125 20.9997V20.6301C11.2229 20.2896 9.62504 18.8605 9.62504 16.9163C9.62504 16.4331 10.0168 16.0413 10.5 16.0413C10.9833 16.0413 11.375 16.4331 11.375 16.9163C11.375 17.7079 12.0332 18.5457 13.125 18.8443V14.7968C11.2229 14.4562 9.62504 13.0271 9.62504 11.083C9.62504 9.13889 11.2229 7.70979 13.125 7.3692V6.99967C13.125 6.51643 13.5168 6.12467 14 6.12467Z" fill="#2F2F2F"/>
</g>
</g>
</svg>
