<svg width="14" height="14" viewBox="0 0 14 14" fill="none" xmlns="http://www.w3.org/2000/svg">
<g id="Group">
<path id="Shape" fill-rule="evenodd" clip-rule="evenodd" d="M13.1157 9.02205L13.6224 12.542C13.6589 12.8131 13.5765 13.0867 13.3964 13.2924C13.2162 13.4982 12.9558 13.6159 12.6824 13.6154H12.5424L9.02235 13.1087C8.54522 13.0429 8.10271 12.8228 7.76235 12.482L1.26902 5.98205C0.00577903 4.67412 0.0238451 2.5951 1.30962 1.30932C2.5954 0.0235399 4.67442 0.00547385 5.98235 1.26871L12.489 7.76205C12.8298 8.1024 13.0499 8.54491 13.1157 9.02205ZM8.50235 11.7754C8.68675 11.9525 8.91816 12.0728 9.16902 12.122L12.6424 12.582L12.1557 9.13538C12.1064 8.88452 11.9861 8.65311 11.809 8.46871L5.30902 1.97538C4.87106 1.52576 4.27002 1.27217 3.64235 1.27217C3.01469 1.27217 2.41365 1.52576 1.97569 1.97538C1.53641 2.4121 1.28941 3.00596 1.28941 3.62538C1.28941 4.24481 1.53641 4.83866 1.97569 5.27538L8.50235 11.7754Z" fill="#0F1015"/>
<path id="Path" d="M3.95567 3.24845C3.75866 3.06488 3.45166 3.0703 3.26125 3.2607C3.07085 3.45111 3.06543 3.75811 3.249 3.95512L6.05567 6.76179C6.25088 6.95675 6.56712 6.95675 6.76234 6.76179C6.9573 6.56657 6.9573 6.25033 6.76234 6.05512L3.95567 3.24845Z" fill="#0F1015"/>
</g>
</svg>
