<svg width="22" height="22" viewBox="0 0 22 22" fill="none" xmlns="http://www.w3.org/2000/svg">
<g id="Interface essential/Filter">
<path id="Shape" fill-rule="evenodd" clip-rule="evenodd" d="M12.6217 9.73309C13.4476 9.71325 14.1854 9.21165 14.5074 8.45098C14.5762 8.47996 14.6497 8.49594 14.7243 8.49812H18.4957C18.8863 8.49812 19.2029 8.18156 19.2029 7.79107C19.2029 7.40058 18.8863 7.08402 18.4957 7.08402H14.7714C14.7307 7.07869 14.6895 7.07869 14.6489 7.08402C14.3788 6.02307 13.3396 5.34694 12.2601 5.52979C11.1805 5.71264 10.422 6.69326 10.5165 7.78395C10.611 8.87463 11.5268 9.71026 12.6217 9.70481V9.73309ZM12.6217 6.95204C13.0018 6.95204 13.31 7.26015 13.31 7.64023C13.31 8.02031 13.0018 8.32843 12.6217 8.32843C12.2416 8.32843 11.9334 8.02031 11.9334 7.64023C11.9334 7.26015 12.2416 6.95204 12.6217 6.95204ZM3.45714 7.08402H9.11429C9.50483 7.08402 9.82143 7.40058 9.82143 7.79107C9.82143 8.18156 9.50483 8.49812 9.11429 8.49812H3.45714C3.0666 8.49812 2.75 8.18156 2.75 7.79107C2.75 7.40058 3.0666 7.08402 3.45714 7.08402ZM5.258 14.6259C5.55333 13.7907 6.34258 13.2318 7.22857 13.2306V13.2118C8.29477 13.2104 9.1932 14.0072 9.31911 15.0658C9.44502 16.1244 8.75854 17.1096 7.72176 17.3583C6.68498 17.607 5.62615 17.0404 5.258 16.04H3.45714C3.0666 16.04 2.75 15.7234 2.75 15.3329C2.75 14.9424 3.0666 14.6259 3.45714 14.6259H5.258ZM6.54142 15.3825C6.5479 15.7575 6.85348 16.0583 7.22857 16.0588V16.0211C7.6087 16.0211 7.91686 15.713 7.91686 15.3329C7.8963 14.9584 7.57965 14.6694 7.2048 14.6829C6.82995 14.6964 6.53494 15.0075 6.54142 15.3825ZM11 14.6259H18.5429C18.9334 14.6259 19.25 14.9424 19.25 15.3329C19.25 15.7234 18.9334 16.04 18.5429 16.04H11C10.6095 16.04 10.2929 15.7234 10.2929 15.3329C10.2929 14.9424 10.6095 14.6259 11 14.6259Z" fill="white"/>
</g>
</svg>
