<svg width="24" height="22" viewBox="0 0 24 22" fill="none" xmlns="http://www.w3.org/2000/svg">
<g id="Group 643">
<path id="Vector 101" d="M4 12.5C4 11.9262 4.12652 11.4774 4.30851 11.1273C4.80125 10.1794 6.09221 10.2208 6.79487 11.0254C8.20839 12.6442 9.73317 15.7291 10.1374 17.7657C10.6724 20.4609 13.5256 21 14.9522 21C17.8054 20.8203 23.4048 20.5687 22.9768 18.8438C22.6367 17.4731 21.8237 17.2596 20.162 16.4184C19.1857 15.9241 18.0893 15.5537 17.0748 15.9638L17.0579 15.9707C16.8811 16.0422 16.7191 16.1077 16.5571 16.1485C14.8452 16.5797 13.7039 15.2501 13.3473 14.5314C11.2073 9.67989 6.28557 0.192557 3.71769 1.05504C1.14981 1.91753 0.864489 6.80494 1.04281 9.14083L2.11276 21H3.71769C3.71769 19.0235 4 14.225 4 12.5Z" stroke="#E60023" stroke-width="1.5"/>
<path id="Vector 102" d="M7.5 12C6.5 10 3 9 1 9" stroke="#E60023" stroke-width="1.5"/>
</g>
</svg>
