<svg width="36" height="36" viewBox="0 0 36 36" fill="none" xmlns="http://www.w3.org/2000/svg">
<g id="Interface essential/Image">
<path id="Oval 2" fill-rule="evenodd" clip-rule="evenodd" d="M21.1519 3.22791H14.9423C8.47152 3.22791 3.22595 8.47348 3.22595 14.9442V21.1539C3.22595 27.6246 8.47152 32.8702 14.9423 32.8702H21.1519C27.6227 32.8702 32.8682 27.6246 32.8682 21.1539V14.9442C32.8682 11.8369 31.6338 8.85677 29.4366 6.65953C27.2394 4.4623 24.2593 3.22791 21.1519 3.22791ZM14.9423 5.42471H21.1519C25.9057 5.43214 29.9253 8.94541 30.5689 13.6554H28.2989C22.187 13.6604 16.5356 16.9041 13.4484 22.179C11.5205 20.6476 9.12974 19.8162 6.66762 19.8211H5.42276V14.9442C5.43083 9.69008 9.68813 5.43278 14.9423 5.42471ZM6.66762 22.0179H5.4667C5.78484 25.4717 7.95623 28.4791 11.1345 29.8679C11.2394 27.9129 11.6804 25.9907 12.4379 24.1855C10.8393 22.7899 8.78967 22.02 6.66762 22.0179ZM21.1519 30.6734H14.9423C14.3917 30.6712 13.8425 30.6172 13.302 30.5123C13.4848 22.3568 20.1413 15.8368 28.2989 15.8229H30.6714V21.1539C30.6634 26.408 26.406 30.6653 21.1519 30.6734ZM12.1889 15.0614C13.8066 15.0614 15.118 13.75 15.118 12.1323C15.118 10.5146 13.8066 9.20322 12.1889 9.20322C10.5712 9.20322 9.25985 10.5146 9.25985 12.1323C9.25985 13.75 10.5712 15.0614 12.1889 15.0614Z" fill="white"/>
</g>
</svg>
