<svg width="25" height="25" viewBox="0 0 25 25" fill="none" xmlns="http://www.w3.org/2000/svg">
<g id="Bold / Essentional, UI / Home 2">
<path id="Vector" fill-rule="evenodd" clip-rule="evenodd" d="M2.62421 8.14836C2.08337 9.13642 2.08337 10.3283 2.08337 12.7121V14.2965C2.08337 18.3599 2.08337 20.3916 3.30376 21.654C4.52415 22.9163 6.48834 22.9163 10.4167 22.9163H14.5834C18.5117 22.9163 20.4759 22.9163 21.6963 21.654C22.9167 20.3916 22.9167 18.3599 22.9167 14.2965V12.7121C22.9167 10.3283 22.9167 9.13642 22.3759 8.14836C21.835 7.16031 20.847 6.54708 18.8708 5.32064L16.7875 4.02766C14.6986 2.73123 13.6541 2.08301 12.5 2.08301C11.3459 2.08301 10.3015 2.73123 8.21257 4.02766L6.12924 5.32064C4.15311 6.54708 3.16504 7.16031 2.62421 8.14836ZM11.7188 18.7497C11.7188 19.1811 12.0686 19.5309 12.5 19.5309C12.9315 19.5309 13.2813 19.1811 13.2813 18.7497V15.6247C13.2813 15.1932 12.9315 14.8434 12.5 14.8434C12.0686 14.8434 11.7188 15.1932 11.7188 15.6247V18.7497Z" fill="#2F2F2F"/>
</g>
</svg>
