<svg width="25" height="22" viewBox="0 0 25 22" fill="none" xmlns="http://www.w3.org/2000/svg">
<g id="Group 642">
<g id="Group 641">
<path id="Vector 98" d="M1 5.92749H24.4783" stroke="#E60023" stroke-width="1.5"/>
<path id="Vector 99" d="M9.40612 1L7.78287 5.5992C7.70783 5.81183 7.70685 6.04358 7.78009 6.25684L12.5 20" stroke="#E60023" stroke-width="1.5"/>
<path id="Vector 100" d="M15.7823 1L17.4111 5.61496C17.4828 5.81791 17.487 6.03856 17.4232 6.24412L13 20.5" stroke="#E60023" stroke-width="1.5"/>
<path id="Vector 97" d="M1.62524 6.72052L12.089 19.9917C12.4925 20.5034 13.2697 20.4987 13.6669 19.9823L23.8318 6.76796C24.1825 6.31198 24.0772 5.6548 23.6015 5.33132L17.4864 1.17307C17.3206 1.0603 17.1246 1 16.9241 1H7.71816C7.49686 1 7.28182 1.0734 7.10671 1.20871L1.79906 5.31008C1.35902 5.65011 1.28092 6.28383 1.62524 6.72052Z" stroke="#E60023" stroke-width="1.5"/>
</g>
</g>
</svg>
