<svg width="28" height="28" viewBox="0 0 28 28" fill="none" xmlns="http://www.w3.org/2000/svg">
<g id="Bold / Users / User Id">
<path id="Vector" fill-rule="evenodd" clip-rule="evenodd" d="M11.6667 4.66699H16.3334C20.7331 4.66699 22.933 4.66699 24.2999 6.03383C25.6667 7.40066 25.6667 9.60055 25.6667 14.0003C25.6667 18.4001 25.6667 20.6 24.2999 21.9668C22.933 23.3337 20.7331 23.3337 16.3334 23.3337H11.6667C7.26693 23.3337 5.06704 23.3337 3.70021 21.9668C2.33337 20.6 2.33337 18.4001 2.33337 14.0003C2.33337 9.60055 2.33337 7.40066 3.70021 6.03383C5.06704 4.66699 7.26693 4.66699 11.6667 4.66699ZM15.4584 10.5003C15.4584 10.0171 15.8501 9.62533 16.3334 9.62533H22.1667C22.65 9.62533 23.0417 10.0171 23.0417 10.5003C23.0417 10.9836 22.65 11.3753 22.1667 11.3753H16.3334C15.8501 11.3753 15.4584 10.9836 15.4584 10.5003ZM16.625 14.0003C16.625 13.5171 17.0168 13.1253 17.5 13.1253H22.1667C22.65 13.1253 23.0417 13.5171 23.0417 14.0003C23.0417 14.4836 22.65 14.8753 22.1667 14.8753H17.5C17.0168 14.8753 16.625 14.4836 16.625 14.0003ZM17.7917 17.5003C17.7917 17.0171 18.1835 16.6253 18.6667 16.6253H22.1667C22.65 16.6253 23.0417 17.0171 23.0417 17.5003C23.0417 17.9836 22.65 18.3753 22.1667 18.3753H18.6667C18.1835 18.3753 17.7917 17.9836 17.7917 17.5003ZM12.8334 10.5003C12.8334 11.789 11.7887 12.8337 10.5 12.8337C9.21138 12.8337 8.16671 11.789 8.16671 10.5003C8.16671 9.21166 9.21138 8.16699 10.5 8.16699C11.7887 8.16699 12.8334 9.21166 12.8334 10.5003ZM10.5 19.8337C15.1667 19.8337 15.1667 18.789 15.1667 17.5003C15.1667 16.2117 13.0774 15.167 10.5 15.167C7.92271 15.167 5.83337 16.2117 5.83337 17.5003C5.83337 18.789 5.83337 19.8337 10.5 19.8337Z" fill="#2F2F2F"/>
</g>
</svg>
