<svg width="25" height="25" viewBox="0 0 25 25" fill="none" xmlns="http://www.w3.org/2000/svg">
<g id="Bold / Map &#38; Location / Map Point">
<path id="Vector" fill-rule="evenodd" clip-rule="evenodd" d="M12.5 2.08301C7.89759 2.08301 4.16663 6.25237 4.16663 10.9372C4.16663 14.9246 7.61628 18.5867 9.93657 21.306C10.6374 22.1274 11.49 22.9366 12.5695 22.9157C13.5592 22.8965 14.3487 22.1791 14.997 21.4309C17.8895 18.0926 20.8333 15.1139 20.8333 10.9372C20.8333 6.25237 17.1023 2.08301 12.5 2.08301ZM12.5 12.4997C13.6506 12.4997 14.5833 11.5669 14.5833 10.4163C14.5833 9.26575 13.6506 8.33301 12.5 8.33301C11.3494 8.33301 10.4166 9.26575 10.4166 10.4163C10.4166 11.5669 11.3494 12.4997 12.5 12.4997Z" fill="#2F2F2F"/>
</g>
</svg>
