<svg width="20" height="20" viewBox="0 0 20 20" fill="none" xmlns="http://www.w3.org/2000/svg">
<g id="Bold / Call / Phone Calling " clip-path="url(#clip0_3012_6835)">
<g id="Vector">
<path d="M13.5562 12.5477L13.1007 13.0272C13.1007 13.0272 12.0181 14.167 9.06312 11.0559C6.10812 7.94484 7.1907 6.80507 7.1907 6.80507L7.47752 6.50311C8.18407 5.75924 8.25068 4.56497 7.63424 3.6931L6.37326 1.90961C5.61028 0.8305 4.13596 0.687949 3.26145 1.60864L1.69185 3.26114C1.25823 3.71766 0.967652 4.30945 1.00289 4.96594C1.09304 6.64546 1.81071 10.259 5.81536 14.4752C10.0621 18.9462 14.0468 19.1239 15.6763 18.9631C16.1917 18.9122 16.6399 18.6343 17.0011 18.254L18.4217 16.7584C19.3806 15.7489 19.1102 14.0182 17.8833 13.312L15.9728 12.2123C15.1672 11.7486 14.1858 11.8848 13.5562 12.5477Z" fill="#121212"/>
<path d="M13.1007 13.0272L12.7382 12.6829L13.1007 13.0272ZM13.5562 12.5477L13.9187 12.892L13.5562 12.5477ZM15.9728 12.2123L15.7234 12.6457H15.7234L15.9728 12.2123ZM17.8833 13.312L17.6339 13.7453L17.8833 13.312ZM18.4217 16.7584L18.7842 17.1028L18.4217 16.7584ZM17.0011 18.254L16.6386 17.9097L17.0011 18.254ZM15.6763 18.9631L15.7254 19.4607H15.7254L15.6763 18.9631ZM5.81536 14.4752L6.17789 14.1308L5.81536 14.4752ZM1.00289 4.96594L0.503606 4.99273L0.503606 4.99273L1.00289 4.96594ZM7.47752 6.50311L7.84005 6.84746L7.47752 6.50311ZM7.63424 3.6931L8.0425 3.40444V3.40444L7.63424 3.6931ZM6.37326 1.90961L5.96499 2.19827V2.19827L6.37326 1.90961ZM3.26145 1.60864L3.62398 1.95299V1.95299L3.26145 1.60864ZM1.69185 3.26114L1.32932 2.91679L1.32932 2.91679L1.69185 3.26114ZM9.06312 11.0559L9.42565 10.7116L9.06312 11.0559ZM13.4632 13.3715L13.9187 12.892L13.1936 12.2034L12.7382 12.6829L13.4632 13.3715ZM15.7234 12.6457L17.6339 13.7453L18.1328 12.8786L16.2222 11.779L15.7234 12.6457ZM18.0591 16.4141L16.6386 17.9097L17.3637 18.5983L18.7842 17.1028L18.0591 16.4141ZM15.6272 18.4655C14.1273 18.6135 10.3029 18.4737 6.17789 14.1308L5.45283 14.8195C9.82135 19.4188 13.9663 19.6343 15.7254 19.4607L15.6272 18.4655ZM6.17789 14.1308C2.25892 10.0049 1.58624 6.50552 1.50217 4.93914L0.503606 4.99273C0.599826 6.78539 1.36251 10.5132 5.45283 14.8195L6.17789 14.1308ZM7.55323 7.14942L7.84005 6.84746L7.11499 6.15877L6.82817 6.46073L7.55323 7.14942ZM8.0425 3.40444L6.78152 1.62096L5.96499 2.19827L7.22598 3.98176L8.0425 3.40444ZM2.89892 1.2643L1.32932 2.91679L2.05438 3.60548L3.62398 1.95299L2.89892 1.2643ZM7.1907 6.80507C6.82817 6.46073 6.82771 6.46122 6.82725 6.46171C6.82708 6.46188 6.82661 6.46238 6.82629 6.46273C6.82565 6.46341 6.82498 6.46412 6.82431 6.46485C6.82295 6.46631 6.82153 6.46785 6.82005 6.46948C6.81708 6.47274 6.81386 6.47635 6.81042 6.48031C6.80353 6.48824 6.79572 6.49757 6.7872 6.50834C6.77014 6.5299 6.75016 6.55724 6.7288 6.59063C6.68598 6.65755 6.63791 6.74822 6.59666 6.86415C6.51308 7.09901 6.46326 7.42131 6.52407 7.83632C6.64412 8.65567 7.18986 9.80972 8.70059 11.4002L9.42565 10.7116C7.98138 9.19101 7.59091 8.21965 7.5135 7.69135C7.47558 7.43255 7.51172 7.27546 7.53879 7.1994C7.55285 7.15986 7.56628 7.13718 7.57112 7.12962C7.57358 7.12576 7.57398 7.12558 7.57134 7.12892C7.57002 7.13059 7.56793 7.13315 7.56496 7.13656C7.56347 7.13827 7.56176 7.1402 7.55981 7.14234C7.55884 7.14341 7.55781 7.14454 7.55671 7.14572C7.55616 7.14631 7.5556 7.14691 7.55502 7.14753C7.55473 7.14784 7.55428 7.14831 7.55414 7.14846C7.55369 7.14894 7.55323 7.14942 7.1907 6.80507ZM8.70059 11.4002C10.2083 12.9876 11.3115 13.5721 12.1099 13.7017C12.5168 13.7678 12.8356 13.7138 13.0688 13.6218C13.1834 13.5766 13.2725 13.5242 13.3377 13.4779C13.3702 13.4549 13.3968 13.4334 13.4176 13.4151C13.428 13.406 13.4369 13.3977 13.4445 13.3903C13.4483 13.3867 13.4518 13.3833 13.4549 13.3801C13.4565 13.3786 13.4579 13.3771 13.4593 13.3756C13.46 13.3749 13.4607 13.3742 13.4613 13.3735C13.4617 13.3732 13.4622 13.3727 13.4623 13.3725C13.4628 13.372 13.4632 13.3715 13.1007 13.0272C12.7382 12.6829 12.7386 12.6824 12.7391 12.6819C12.7392 12.6818 12.7397 12.6813 12.74 12.681C12.7406 12.6804 12.7411 12.6798 12.7417 12.6792C12.7428 12.678 12.7439 12.6769 12.7449 12.6759C12.747 12.6738 12.7488 12.672 12.7505 12.6704C12.7538 12.6672 12.7564 12.6649 12.7581 12.6634C12.7616 12.6603 12.762 12.6603 12.7592 12.6623C12.7536 12.6662 12.735 12.6785 12.7019 12.6916C12.6398 12.716 12.5034 12.7525 12.2702 12.7147C11.7885 12.6364 10.8729 12.2353 9.42565 10.7116L8.70059 11.4002ZM6.78152 1.62096C5.85147 0.305533 4.00788 0.0967734 2.89892 1.2643L3.62398 1.95299C4.26404 1.27912 5.3691 1.35547 5.96499 2.19827L6.78152 1.62096ZM1.50217 4.93914C1.47614 4.45411 1.68891 3.99025 2.05438 3.60548L1.32932 2.91679C0.827546 3.44507 0.459168 4.16479 0.503606 4.99273L1.50217 4.93914ZM16.6386 17.9097C16.3322 18.2323 15.9881 18.4299 15.6272 18.4655L15.7254 19.4607C16.3952 19.3946 16.9477 19.0363 17.3637 18.5983L16.6386 17.9097ZM7.84005 6.84746C8.72062 5.92038 8.78847 4.45951 8.0425 3.40444L7.22598 3.98176C7.71289 4.67042 7.64753 5.5981 7.11499 6.15877L7.84005 6.84746ZM17.6339 13.7453C18.5901 14.2957 18.7873 15.6475 18.0591 16.4141L18.7842 17.1028C19.9738 15.8503 19.6303 13.7406 18.1328 12.8786L17.6339 13.7453ZM13.9187 12.892C14.3855 12.4006 15.1131 12.2944 15.7234 12.6457L16.2222 11.779C15.2214 11.2029 13.986 11.3691 13.1936 12.2034L13.9187 12.892Z" fill="#121212"/>
</g>
<g id="Vector_2">
<path d="M11.0496 1.56685C11.1047 1.22611 11.4268 0.994965 11.7676 1.05013C11.7887 1.05417 11.8565 1.06685 11.8921 1.07477C11.9632 1.09061 12.0624 1.11499 12.1861 1.15101C12.4334 1.22304 12.7789 1.34171 13.1936 1.53183C14.0238 1.91246 15.1286 2.57829 16.2751 3.72479C17.4216 4.87129 18.0875 5.97614 18.4681 6.80637C18.6582 7.22105 18.7769 7.56655 18.8489 7.81387C18.8849 7.93754 18.9093 8.03673 18.9252 8.10784C18.9331 8.14339 18.9389 8.17194 18.9429 8.19304L18.9477 8.21903C19.0029 8.55977 18.7738 8.89521 18.4331 8.95037C18.0933 9.00538 17.7732 8.77535 17.7167 8.43621C17.715 8.4271 17.7102 8.40264 17.7051 8.37956C17.6948 8.33341 17.677 8.26022 17.6488 8.16343C17.5924 7.96982 17.4945 7.68204 17.3318 7.32731C17.007 6.61872 16.4228 5.64023 15.3913 4.60868C14.3597 3.57713 13.3812 2.99296 12.6726 2.6681C12.3179 2.50547 12.0301 2.40753 11.8365 2.35114C11.7397 2.32294 11.618 2.29502 11.5719 2.28474C11.2327 2.22822 10.9946 1.90662 11.0496 1.56685Z" fill="#121212"/>
<path fill-rule="evenodd" clip-rule="evenodd" d="M11.2381 4.44141C11.3329 4.10951 11.6789 3.91733 12.0108 4.01215L11.8391 4.61311C12.0108 4.01215 12.0108 4.01215 12.0108 4.01215L12.012 4.0125L12.0132 4.01287L12.016 4.01368L12.0225 4.01561L12.039 4.02074C12.0515 4.02476 12.0672 4.03 12.0859 4.03663C12.1234 4.04991 12.1728 4.0688 12.2335 4.0948C12.3549 4.14683 12.5208 4.22719 12.7245 4.34778C13.1324 4.58918 13.6892 4.99016 14.3434 5.6443C14.9975 6.29845 15.3985 6.85527 15.6399 7.26316C15.7605 7.46692 15.8409 7.6328 15.8929 7.75421C15.9189 7.81488 15.9378 7.86434 15.9511 7.90177C15.9577 7.92048 15.9629 7.93617 15.967 7.94874L15.9721 7.96522L15.974 7.97168L15.9748 7.97446L15.9752 7.97574C15.9752 7.97574 15.9755 7.97694 15.3746 8.14864L15.9755 7.97694C16.0704 8.30884 15.8782 8.65477 15.5463 8.74959C15.2172 8.84362 14.8743 8.65548 14.7761 8.32877L14.773 8.31978C14.7686 8.30726 14.7594 8.28261 14.744 8.24661C14.7131 8.17466 14.6572 8.05697 14.5642 7.89981C14.3784 7.58586 14.0428 7.11148 13.4595 6.52819C12.8762 5.94489 12.4018 5.60931 12.0879 5.4235C11.9307 5.33049 11.813 5.27457 11.7411 5.24374C11.7051 5.22831 11.6804 5.21911 11.6679 5.21467L11.6589 5.21159C11.3322 5.11336 11.1441 4.77048 11.2381 4.44141Z" fill="#121212"/>
</g>
</g>
<defs>
<clipPath id="clip0_3012_6835">
<rect width="20" height="20" fill="white"/>
</clipPath>
</defs>
</svg>
