<svg width="22" height="22" viewBox="0 0 22 22" fill="none" xmlns="http://www.w3.org/2000/svg">
<g id="Bold / Call / Phone Calling " clip-path="url(#clip0_284_2335)">
<g id="Vector">
<path d="M14.9119 13.8026L14.4109 14.33C14.4109 14.33 13.22 15.5838 9.96953 12.1616C6.71902 8.73942 7.90987 7.48568 7.90987 7.48568L8.22537 7.15352C9.00258 6.33527 9.07585 5.02156 8.39776 4.06251L7.01068 2.10067C6.17141 0.913647 4.54965 0.756841 3.58769 1.7696L1.86113 3.58735C1.38415 4.08952 1.06451 4.74049 1.10327 5.46263C1.20244 7.3101 1.99188 11.2851 6.39699 15.9228C11.0685 20.841 15.4516 21.0364 17.244 20.8595C17.8109 20.8035 18.304 20.4978 18.7013 20.0795L20.2639 18.4344C21.3187 17.3239 21.0213 15.4201 19.6718 14.6433L17.5702 13.4336C16.6841 12.9236 15.6044 13.0734 14.9119 13.8026Z" fill="#121212"/>
<path d="M14.4109 14.33L14.0484 13.9857L14.4109 14.33ZM14.9119 13.8026L15.2744 14.1469L14.9119 13.8026ZM17.5702 13.4336L17.3208 13.867L17.5702 13.4336ZM19.6718 14.6433L19.4223 15.0766L19.6718 14.6433ZM20.2639 18.4344L20.6265 18.7787L20.2639 18.4344ZM18.7013 20.0795L18.3388 19.7352L18.7013 20.0795ZM17.244 20.8595L17.2931 21.3571L17.244 20.8595ZM6.39699 15.9228L6.75952 15.5785L6.39699 15.9228ZM1.10327 5.46263L0.603993 5.48943L0.603993 5.48943L1.10327 5.46263ZM8.22537 7.15352L8.5879 7.49787V7.49786L8.22537 7.15352ZM8.39776 4.06251L8.80603 3.77385V3.77385L8.39776 4.06251ZM7.01068 2.10067L6.60242 2.38933L6.60242 2.38933L7.01068 2.10067ZM3.58769 1.7696L3.95022 2.11395V2.11395L3.58769 1.7696ZM1.86113 3.58735L1.4986 3.243H1.4986L1.86113 3.58735ZM9.96953 12.1616L10.3321 11.8172L9.96953 12.1616ZM14.7734 14.6744L15.2744 14.1469L14.5493 13.4582L14.0484 13.9857L14.7734 14.6744ZM17.3208 13.867L19.4223 15.0766L19.9212 14.2099L17.8196 13.0003L17.3208 13.867ZM19.9014 18.09L18.3388 19.7352L19.0639 20.4238L20.6265 18.7787L19.9014 18.09ZM17.1949 20.3619C15.5321 20.526 11.3092 20.3685 6.75952 15.5785L6.03446 16.2671C10.8277 21.3135 15.3711 21.5468 17.2931 21.3571L17.1949 20.3619ZM6.75952 15.5785C2.44009 11.0309 1.69564 7.17017 1.60256 5.43583L0.603993 5.48943C0.709227 7.45003 1.54367 11.5392 6.03446 16.2671L6.75952 15.5785ZM8.2724 7.83002L8.5879 7.49787L7.86284 6.80918L7.54734 7.14134L8.2724 7.83002ZM8.80603 3.77385L7.41894 1.81202L6.60242 2.38933L7.9895 4.35116L8.80603 3.77385ZM3.22516 1.42526L1.4986 3.243L2.22366 3.93169L3.95022 2.11395L3.22516 1.42526ZM7.90987 7.48568C7.54734 7.14134 7.54688 7.14182 7.54641 7.14232C7.54625 7.14249 7.54578 7.14299 7.54545 7.14334C7.54481 7.14402 7.54414 7.14474 7.54345 7.14547C7.54209 7.14695 7.54065 7.14851 7.53914 7.15017C7.53612 7.15349 7.53283 7.15718 7.52928 7.16126C7.5222 7.1694 7.51411 7.17907 7.50522 7.19031C7.48744 7.21277 7.46645 7.24149 7.44389 7.27674C7.39869 7.34739 7.34754 7.44372 7.30353 7.56742C7.21442 7.81783 7.1603 8.1641 7.22604 8.61281C7.35597 9.49954 7.94852 10.7599 9.607 12.5059L10.3321 11.8172C8.74004 10.1411 8.30276 9.06351 8.21548 8.46783C8.17262 8.17534 8.21306 7.99428 8.24566 7.90267C8.26249 7.85536 8.27899 7.82702 8.28621 7.81573C8.28987 7.81001 8.29129 7.80846 8.28936 7.81088C8.2884 7.8121 8.2866 7.81431 8.28383 7.81751C8.28244 7.8191 8.2808 7.82095 8.2789 7.82303C8.27796 7.82408 8.27694 7.82518 8.27586 7.82634C8.27532 7.82693 8.27476 7.82753 8.27418 7.82814C8.27389 7.82844 8.27345 7.82892 8.2733 7.82907C8.27285 7.82954 8.2724 7.83002 7.90987 7.48568ZM9.607 12.5059C11.2625 14.2488 12.4666 14.8826 13.329 15.0227C13.7679 15.0939 14.1095 15.0354 14.3575 14.9376C14.4794 14.8895 14.5739 14.8338 14.6426 14.785C14.6769 14.7607 14.7048 14.7381 14.7264 14.7191C14.7373 14.7096 14.7466 14.701 14.7544 14.6935C14.7583 14.6897 14.7618 14.6862 14.765 14.683C14.7666 14.6814 14.7681 14.6799 14.7695 14.6785C14.7702 14.6777 14.7709 14.677 14.7715 14.6764C14.7718 14.676 14.7723 14.6755 14.7725 14.6753C14.7729 14.6749 14.7734 14.6744 14.4109 14.33C14.0484 13.9857 14.0488 13.9852 14.0493 13.9847C14.0494 13.9846 14.0499 13.9841 14.0501 13.9838C14.0507 13.9832 14.0513 13.9826 14.0519 13.982C14.053 13.9809 14.054 13.9798 14.055 13.9788C14.057 13.9768 14.0588 13.975 14.0604 13.9735C14.0635 13.9705 14.0657 13.9685 14.067 13.9674C14.0696 13.9651 14.0687 13.9661 14.0641 13.9694C14.055 13.9758 14.0311 13.9913 13.9906 14.0073C13.9137 14.0376 13.7545 14.0786 13.4893 14.0356C12.9436 13.947 11.9271 13.4965 10.3321 11.8172L9.607 12.5059ZM7.41894 1.81202C6.41259 0.388681 4.42157 0.165666 3.22516 1.42526L3.95022 2.11395C4.67773 1.34802 5.93023 1.43861 6.60242 2.38933L7.41894 1.81202ZM1.60256 5.43583C1.573 4.88515 1.81483 4.36211 2.22366 3.93169L1.4986 3.243C0.953467 3.81693 0.556031 4.59584 0.603993 5.48943L1.60256 5.43583ZM18.3388 19.7352C17.9963 20.0958 17.6074 20.3212 17.1949 20.3619L17.2931 21.3571C18.0145 21.2859 18.6118 20.8998 19.0639 20.4238L18.3388 19.7352ZM8.5879 7.49786C9.53912 6.49641 9.61364 4.91611 8.80603 3.77385L7.9895 4.35116C8.53805 5.12701 8.46603 6.17413 7.86284 6.80918L8.5879 7.49786ZM19.4223 15.0766C20.5012 15.6976 20.7255 17.2225 19.9014 18.09L20.6265 18.7787C21.912 17.4253 21.5414 15.1425 19.9212 14.2099L19.4223 15.0766ZM15.2744 14.1469C15.8042 13.5891 16.6299 13.4693 17.3208 13.867L17.8196 13.0003C16.7382 12.3779 15.4047 12.5577 14.5493 13.4582L15.2744 14.1469Z" fill="#121212"/>
</g>
<g id="Vector_2">
<path d="M12.1544 1.72334C12.2151 1.34853 12.5695 1.09427 12.9443 1.15495C12.9675 1.15939 13.0421 1.17334 13.0812 1.18205C13.1595 1.19947 13.2686 1.22629 13.4046 1.26591C13.6766 1.34515 14.0567 1.47569 14.5128 1.68482C15.4261 2.10351 16.6414 2.83593 17.9026 4.09708C19.1637 5.35823 19.8962 6.57356 20.3148 7.48681C20.524 7.94296 20.6545 8.32301 20.7337 8.59506C20.7734 8.7311 20.8002 8.84021 20.8176 8.91843C20.8263 8.95754 20.8327 8.98894 20.8371 9.01214L20.8424 9.04074C20.9031 9.41556 20.6511 9.78453 20.2763 9.84521C19.9026 9.90572 19.5505 9.65269 19.4883 9.27963C19.4864 9.26962 19.4811 9.2427 19.4755 9.21732C19.4642 9.16656 19.4446 9.08605 19.4136 8.97958C19.3516 8.7666 19.2438 8.45005 19.0649 8.05984C18.7076 7.2804 18.065 6.20406 16.9303 5.06935C15.7956 3.93464 14.7193 3.29206 13.9398 2.93472C13.5496 2.75583 13.2331 2.64809 13.0201 2.58605C12.9136 2.55504 12.7798 2.52432 12.729 2.51302C12.356 2.45085 12.0939 2.09709 12.1544 1.72334Z" fill="#121212"/>
<path fill-rule="evenodd" clip-rule="evenodd" d="M12.3618 4.88535C12.4662 4.52027 12.8467 4.30886 13.2118 4.41317L13.0229 5.07422C13.2118 4.41317 13.2118 4.41317 13.2118 4.41317L13.2131 4.41355L13.2145 4.41396L13.2175 4.41485L13.2246 4.41697L13.2428 4.42262C13.2566 4.42704 13.2739 4.4328 13.2944 4.4401C13.3356 4.45471 13.39 4.47549 13.4568 4.50409C13.5903 4.56132 13.7728 4.64971 13.9969 4.78236C14.4456 5.0479 15.0581 5.48898 15.7777 6.20854C16.4972 6.9281 16.9383 7.5406 17.2038 7.98928C17.3365 8.21341 17.4249 8.39589 17.4821 8.52943C17.5107 8.59617 17.5315 8.65058 17.5461 8.69175C17.5534 8.71233 17.5592 8.72959 17.5636 8.74341L17.5692 8.76155L17.5713 8.76866L17.5722 8.77171L17.5726 8.77312C17.5726 8.77312 17.573 8.77444 16.912 8.96331L17.573 8.77444C17.6773 9.13953 17.4659 9.52005 17.1008 9.62436C16.7389 9.72778 16.3617 9.52083 16.2536 9.16145L16.2503 9.15157C16.2454 9.13779 16.2353 9.11067 16.2183 9.07107C16.1844 8.99193 16.1229 8.86247 16.0205 8.68959C15.8162 8.34425 15.447 7.82243 14.8054 7.18081C14.1638 6.53919 13.642 6.17004 13.2966 5.96565C13.1237 5.86334 12.9943 5.80183 12.9151 5.76791C12.8755 5.75094 12.8484 5.74083 12.8346 5.73594L12.8248 5.73255C12.4654 5.6245 12.2584 5.24734 12.3618 4.88535Z" fill="#121212"/>
</g>
</g>
<defs>
<clipPath id="clip0_284_2335">
<rect width="22" height="22" fill="white"/>
</clipPath>
</defs>
</svg>
