<svg width="32" height="32" viewBox="0 0 32 32" fill="none" xmlns="http://www.w3.org/2000/svg">
<g id="Interface essential/Pluse">
<path id="Path" d="M26.3333 14.6667H16.6667V5C16.6667 4.44772 16.219 4 15.6667 4C15.1144 4 14.6667 4.44772 14.6667 5V14.6667H5C4.44772 14.6667 4 15.1144 4 15.6667C4 16.219 4.44772 16.6667 5 16.6667H14.6667V26.3333C14.6667 26.8856 15.1144 27.3333 15.6667 27.3333C16.219 27.3333 16.6667 26.8856 16.6667 26.3333V16.6667H26.3333C26.8856 16.6667 27.3333 16.219 27.3333 15.6667C27.3333 15.1144 26.8856 14.6667 26.3333 14.6667Z" fill="white"/>
</g>
</svg>
