<svg width="25" height="25" viewBox="0 0 25 25" fill="none" xmlns="http://www.w3.org/2000/svg">
<g id="Bold / Nature, Travel / Suitcase">
<path id="Vector" fill-rule="evenodd" clip-rule="evenodd" d="M12.5542 1.30176H12.4459C11.51 1.30173 10.7295 1.30171 10.11 1.385C9.45601 1.47292 8.86559 1.66633 8.39114 2.14078C7.9167 2.61523 7.72329 3.20564 7.63537 3.8596C7.55207 4.47916 7.55209 5.25959 7.55212 6.19549V6.27646C5.44673 6.34535 4.18245 6.59138 3.30376 7.47006C2.08337 8.69045 2.08337 10.6546 2.08337 14.583C2.08337 18.5114 2.08337 20.4756 3.30376 21.696C4.52415 22.9163 6.48834 22.9163 10.4167 22.9163H14.5834C18.5117 22.9163 20.4759 22.9163 21.6963 21.696C22.9167 20.4756 22.9167 18.5114 22.9167 14.583C22.9167 10.6546 22.9167 8.69045 21.6963 7.47006C20.8176 6.59138 19.5534 6.34535 17.448 6.27646V6.19552C17.448 5.25961 17.448 4.47915 17.3647 3.8596C17.2768 3.20564 17.0834 2.61523 16.6089 2.14078C16.1345 1.66633 15.5441 1.47292 14.8901 1.385C14.2706 1.30171 13.4901 1.30173 12.5542 1.30176ZM15.8855 6.25164V6.24968C15.8855 5.2455 15.8838 4.57096 15.8162 4.0678C15.7515 3.58711 15.6398 3.38138 15.5041 3.24563C15.3683 3.10989 15.1626 2.9982 14.6819 2.93357C14.1788 2.86592 13.5042 2.86426 12.5 2.86426C11.4959 2.86426 10.8213 2.86592 10.3182 2.93357C9.83747 2.9982 9.63174 3.10989 9.496 3.24563C9.36025 3.38138 9.24856 3.58711 9.18393 4.0678C9.11629 4.57096 9.11463 5.2455 9.11463 6.24968V6.25164C9.52299 6.24968 9.95636 6.24968 10.4167 6.24968H14.5834C15.0437 6.24968 15.4771 6.24968 15.8855 6.25164ZM17.7084 9.37468C17.7084 9.94997 17.242 10.4163 16.6667 10.4163C16.0914 10.4163 15.625 9.94997 15.625 9.37468C15.625 8.79938 16.0914 8.33301 16.6667 8.33301C17.242 8.33301 17.7084 8.79938 17.7084 9.37468ZM8.33337 10.4163C8.90867 10.4163 9.37504 9.94997 9.37504 9.37468C9.37504 8.79938 8.90867 8.33301 8.33337 8.33301C7.75808 8.33301 7.29171 8.79938 7.29171 9.37468C7.29171 9.94997 7.75808 10.4163 8.33337 10.4163Z" fill="#2F2F2F"/>
</g>
</svg>
