<svg width="27" height="27" viewBox="0 0 27 27" fill="none" xmlns="http://www.w3.org/2000/svg">
<g id="Bold / Shopping, Ecommerce / Bag 4">
<path id="Vector" fill-rule="evenodd" clip-rule="evenodd" d="M9.28126 7.89014C9.28117 7.8851 9.28113 7.88006 9.28113 7.875V6.75C9.28113 4.42005 11.1699 2.53125 13.4999 2.53125C15.8298 2.53125 17.7186 4.42005 17.7186 6.75V7.875C17.7186 7.88006 17.7186 7.8851 17.7185 7.89014C19.178 7.93097 20.067 8.08192 20.7477 8.63997C21.6808 9.40494 21.9406 10.7037 22.4601 13.3012L23.1351 16.6762C23.8822 20.4117 24.2557 22.2794 23.243 23.5147C22.2304 24.75 20.3256 24.75 16.5162 24.75H10.4835C6.67408 24.75 4.76936 24.75 3.75666 23.5147C2.74397 22.2794 3.11752 20.4117 3.86461 16.6762L4.53961 13.3012C5.05911 10.7037 5.31887 9.40494 6.25198 8.63997C6.9327 8.08191 7.8217 7.93097 9.28126 7.89014ZM10.9686 6.75C10.9686 5.35203 12.1019 4.21875 13.4999 4.21875C14.8978 4.21875 16.0311 5.35203 16.0311 6.75V7.875C16.0311 7.875 16.0311 7.875 16.0311 7.875C15.9686 7.87499 15.9053 7.875 15.8412 7.875H11.1585C11.0945 7.875 11.0312 7.875 10.9686 7.87501C10.9686 7.87501 10.9686 7.87501 10.9686 7.87501V6.75ZM16.8749 12.375C17.4962 12.375 17.9999 11.8713 17.9999 11.25C17.9999 10.6287 17.4962 10.125 16.8749 10.125C16.2535 10.125 15.7499 10.6287 15.7499 11.25C15.7499 11.8713 16.2535 12.375 16.8749 12.375ZM11.2499 11.25C11.2499 11.8713 10.7462 12.375 10.1249 12.375C9.50353 12.375 8.99985 11.8713 8.99985 11.25C8.99985 10.6287 9.50353 10.125 10.1249 10.125C10.7462 10.125 11.2499 10.6287 11.2499 11.25Z" fill="black"/>
</g>
</svg>
