<svg width="27" height="27" viewBox="0 0 27 27" fill="none" xmlns="http://www.w3.org/2000/svg">
<g id="Outline / Shopping, Ecommerce / Bag 4">
<g id="Vector">
<path d="M18 10.125C18 10.7463 17.4963 11.25 16.875 11.25C16.2537 11.25 15.75 10.7463 15.75 10.125C15.75 9.50368 16.2537 9 16.875 9C17.4963 9 18 9.50368 18 10.125Z" fill="#A8A8A8"/>
<path d="M11.25 10.125C11.25 10.7463 10.7463 11.25 10.125 11.25C9.50369 11.25 9.00001 10.7463 9.00001 10.125C9.00001 9.50368 9.50369 9 10.125 9C10.7463 9 11.25 9.50368 11.25 10.125Z" fill="#A8A8A8"/>
<path fill-rule="evenodd" clip-rule="evenodd" d="M13.5 3.09375C12.102 3.09375 10.9688 4.22703 10.9688 5.625V5.91128C11.4384 5.90624 11.9455 5.90625 12.4934 5.90625H14.5066C15.0545 5.90625 15.5616 5.90624 16.0313 5.91128V5.625C16.0313 4.22703 14.898 3.09375 13.5 3.09375ZM17.7188 5.9703V5.625C17.7188 3.29505 15.83 1.40625 13.5 1.40625C11.1701 1.40625 9.28126 3.29505 9.28126 5.625V5.9703C9.12939 5.98138 8.98283 5.99438 8.84136 6.00963C7.85321 6.11614 7.02685 6.33925 6.29302 6.84222C6.04062 7.01521 5.80356 7.20956 5.58443 7.42312C4.94731 8.04406 4.56647 8.81061 4.26824 9.75869C3.9787 10.6792 3.74469 11.8492 3.45064 13.3195L3.42918 13.4268C3.00546 15.5454 2.67157 17.2148 2.57567 18.5445C2.47768 19.903 2.61461 21.046 3.25815 22.0364C3.47287 22.3669 3.72349 22.6726 4.00543 22.948C4.85046 23.7733 5.94435 24.1317 7.29577 24.302C8.61841 24.4688 10.3209 24.4688 12.4814 24.4688H14.5187C16.6791 24.4688 18.3816 24.4688 19.7043 24.302C21.0557 24.1317 22.1496 23.7733 22.9946 22.948C23.2765 22.6726 23.5272 22.3669 23.7419 22.0364C24.3854 21.046 24.5223 19.903 24.4244 18.5445C24.3285 17.2148 23.9946 15.5454 23.5709 13.4269L23.5494 13.3196C23.2553 11.8493 23.0213 10.6792 22.7318 9.75869C22.4336 8.81062 22.0527 8.04406 21.4156 7.42312C21.1965 7.20956 20.9594 7.01521 20.707 6.84222C19.9732 6.33925 19.1468 6.11614 18.1587 6.00963C18.0172 5.99438 17.8706 5.98138 17.7188 5.9703ZM9.02219 7.68741C8.18214 7.77796 7.66317 7.94894 7.24705 8.23415C7.07436 8.35251 6.91216 8.48548 6.76223 8.63161C6.40095 8.98371 6.13151 9.45907 5.87798 10.2651C5.61889 11.0887 5.40159 12.1694 5.09582 13.6982C4.65759 15.8894 4.34615 17.4547 4.2588 18.6658C4.17264 19.8605 4.31812 20.5705 4.6732 21.117C4.82011 21.3432 4.99158 21.5523 5.18449 21.7407C5.65074 22.1961 6.31846 22.478 7.50682 22.6278C8.71158 22.7797 10.3075 22.7812 12.5421 22.7812H14.4579C16.6925 22.7812 18.2884 22.7797 19.4932 22.6278C20.6816 22.478 21.3493 22.1961 21.8155 21.7407C22.0084 21.5523 22.1799 21.3432 22.3268 21.117C22.6819 20.5705 22.8274 19.8605 22.7412 18.6658C22.6539 17.4547 22.3424 15.8894 21.9042 13.6982C21.5984 12.1694 21.3811 11.0887 21.122 10.2651C20.8685 9.45907 20.5991 8.98371 20.2378 8.63161C20.0879 8.48549 19.9257 8.35251 19.753 8.23415C19.3368 7.94894 18.8179 7.77796 17.9778 7.68741C17.1194 7.59489 16.017 7.59375 14.4579 7.59375H12.5421C10.983 7.59375 9.88064 7.59489 9.02219 7.68741Z" fill="#A8A8A8"/>
</g>
</g>
</svg>
