<svg width="18" height="22" viewBox="0 0 18 22" fill="none" xmlns="http://www.w3.org/2000/svg">
<g id="Document-2-Outlined">
<path id="Shape" fill-rule="evenodd" clip-rule="evenodd" d="M6.67087 11.8778H5.16503C4.87392 11.8778 4.59504 11.7607 4.39124 11.5528C4.18744 11.345 4.07588 11.0638 4.0817 10.7728V9.26693C4.0817 8.66862 4.56672 8.18359 5.16503 8.18359H6.67087C7.26917 8.18359 7.7542 8.66862 7.7542 9.26693V10.7944C7.7542 11.3927 7.26917 11.8778 6.67087 11.8778ZM6.15087 9.78693H5.68503V10.2528H6.15087V9.78693Z" fill="#A8A8A8"/>
<path id="Path" d="M4.8075 14.6182H9.60666C10.0554 14.6182 10.4192 14.2544 10.4192 13.8057C10.4192 13.3569 10.0554 12.9932 9.60666 12.9932H4.8075C4.35876 12.9932 3.995 13.3569 3.995 13.8057C3.995 14.2544 4.35876 14.6182 4.8075 14.6182Z" fill="#A8A8A8"/>
<path id="Path_2" d="M11.1667 15.7344H4.8075C4.35876 15.7344 3.995 16.0981 3.995 16.5469C3.995 16.9956 4.35876 17.3594 4.8075 17.3594H11.1667C11.6154 17.3594 11.9792 16.9956 11.9792 16.5469C11.9792 16.0981 11.6154 15.7344 11.1667 15.7344Z" fill="#A8A8A8"/>
<path id="Shape_2" fill-rule="evenodd" clip-rule="evenodd" d="M17.1575 8.22684L9.57419 0.643507C9.41457 0.506709 9.21019 0.433441 9.00002 0.437674H5.75002C2.90806 0.437674 0.604187 2.74154 0.604187 5.58351V16.4168C0.604187 19.2588 2.90806 21.5627 5.75002 21.5627H12.25C15.092 21.5627 17.3959 19.2588 17.3959 16.4168V8.83351C17.3995 8.60776 17.3139 8.38971 17.1575 8.22684ZM9.81252 3.18934L14.6442 8.02101H11.1667C10.4188 8.02101 9.81252 7.41473 9.81252 6.66684V3.18934ZM5.75002 19.9377H12.25C14.1921 19.9317 15.7649 18.3589 15.7709 16.4168V9.64601H11.1667C9.52134 9.64601 8.18752 8.31219 8.18752 6.66684V2.06267H5.75002C3.80799 2.06862 2.23514 3.64147 2.22919 5.58351V16.4168C2.23514 18.3589 3.80799 19.9317 5.75002 19.9377Z" fill="#A8A8A8"/>
</g>
</svg>
