<svg width="18" height="22" viewBox="0 0 18 22" fill="none" xmlns="http://www.w3.org/2000/svg">
<g id="Document-2-Outlined">
<path id="Shape" fill-rule="evenodd" clip-rule="evenodd" d="M6.67093 11.8778H5.16509C4.87398 11.8778 4.5951 11.7607 4.3913 11.5528C4.1875 11.345 4.07594 11.0638 4.08176 10.7728V9.26693C4.08176 8.66862 4.56678 8.18359 5.16509 8.18359H6.67093C7.26924 8.18359 7.75426 8.66862 7.75426 9.26693V10.7944C7.75426 11.3927 7.26924 11.8778 6.67093 11.8778ZM6.15093 9.78693H5.68509V10.2528H6.15093V9.78693Z" fill="#0F1015"/>
<path id="Path" d="M4.80762 14.6187H9.60678C10.0555 14.6187 10.4193 14.2549 10.4193 13.8062C10.4193 13.3574 10.0555 12.9937 9.60678 12.9937H4.80762C4.35889 12.9937 3.99512 13.3574 3.99512 13.8062C3.99512 14.2549 4.35889 14.6187 4.80762 14.6187Z" fill="#0F1015"/>
<path id="Path_2" d="M11.1668 15.7344H4.80762C4.35889 15.7344 3.99512 16.0981 3.99512 16.5469C3.99512 16.9956 4.35889 17.3594 4.80762 17.3594H11.1668C11.6155 17.3594 11.9793 16.9956 11.9793 16.5469C11.9793 16.0981 11.6155 15.7344 11.1668 15.7344Z" fill="#0F1015"/>
<path id="Shape_2" fill-rule="evenodd" clip-rule="evenodd" d="M17.1576 8.22684L9.57425 0.643507C9.41463 0.506709 9.21025 0.433441 9.00008 0.437674H5.75008C2.90812 0.437674 0.604248 2.74154 0.604248 5.58351V16.4168C0.604248 19.2588 2.90812 21.5627 5.75008 21.5627H12.2501C15.092 21.5627 17.3959 19.2588 17.3959 16.4168V8.83351C17.3996 8.60776 17.3139 8.38971 17.1576 8.22684ZM9.81258 3.18934L14.6442 8.02101H11.1667C10.4189 8.02101 9.81258 7.41473 9.81258 6.66684V3.18934ZM5.75008 19.9377H12.2501C14.1921 19.9317 15.765 18.3589 15.7709 16.4168V9.64601H11.1667C9.5214 9.64601 8.18758 8.31219 8.18758 6.66684V2.06267H5.75008C3.80805 2.06862 2.2352 3.64147 2.22925 5.58351V16.4168C2.2352 18.3589 3.80805 19.9317 5.75008 19.9377Z" fill="#0F1015"/>
</g>
</svg>
