<svg width="18" height="22" viewBox="0 0 18 22" fill="none" xmlns="http://www.w3.org/2000/svg">
<g id="Document-2-Outlined">
<path id="Shape" fill-rule="evenodd" clip-rule="evenodd" d="M6.67083 11.8778H5.16499C4.87388 11.8778 4.595 11.7607 4.3912 11.5528C4.1874 11.345 4.07584 11.0638 4.08166 10.7728V9.26693C4.08166 8.66862 4.56669 8.18359 5.16499 8.18359H6.67083C7.26914 8.18359 7.75416 8.66862 7.75416 9.26693V10.7944C7.75416 11.3927 7.26914 11.8778 6.67083 11.8778ZM6.15083 9.78693H5.68499V10.2528H6.15083V9.78693Z" fill="#0F1015"/>
<path id="Path" d="M4.8075 14.6182H9.60666C10.0554 14.6182 10.4192 14.2544 10.4192 13.8057C10.4192 13.3569 10.0554 12.9932 9.60666 12.9932H4.8075C4.35876 12.9932 3.995 13.3569 3.995 13.8057C3.995 14.2544 4.35876 14.6182 4.8075 14.6182Z" fill="#0F1015"/>
<path id="Path_2" d="M11.1667 15.7344H4.8075C4.35876 15.7344 3.995 16.0981 3.995 16.5469C3.995 16.9956 4.35876 17.3594 4.8075 17.3594H11.1667C11.6154 17.3594 11.9792 16.9956 11.9792 16.5469C11.9792 16.0981 11.6154 15.7344 11.1667 15.7344Z" fill="#0F1015"/>
<path id="Shape_2" fill-rule="evenodd" clip-rule="evenodd" d="M17.1575 8.22684L9.57416 0.643507C9.41455 0.506709 9.21017 0.433441 9 0.437674H5.75C2.90803 0.437674 0.604164 2.74154 0.604164 5.58351V16.4168C0.604164 19.2588 2.90803 21.5627 5.75 21.5627H12.25C15.092 21.5627 17.3958 19.2588 17.3958 16.4168V8.83351C17.3995 8.60776 17.3139 8.38971 17.1575 8.22684ZM9.8125 3.18934L14.6442 8.02101H11.1667C10.4188 8.02101 9.8125 7.41473 9.8125 6.66684V3.18934ZM5.75 19.9377H12.25C14.192 19.9317 15.7649 18.3589 15.7708 16.4168V9.64601H11.1667C9.52132 9.64601 8.1875 8.31219 8.1875 6.66684V2.06267H5.75C3.80796 2.06862 2.23511 3.64147 2.22916 5.58351V16.4168C2.23511 18.3589 3.80796 19.9317 5.75 19.9377Z" fill="#0F1015"/>
</g>
</svg>
