<svg width="18" height="21" viewBox="0 0 18 21" fill="none" xmlns="http://www.w3.org/2000/svg">
<g id="Group 618">
<g id="Document-Edit-Outlined">
<path id="Shape" fill-rule="evenodd" clip-rule="evenodd" d="M10.2683 0.236559L17.764 7.76344C17.9228 7.92235 18.0082 8.14066 17.9996 8.36559V15.8925C17.9996 17.2471 17.4637 18.5462 16.5098 19.504C15.5559 20.4619 14.2622 21 12.9132 21H9.83998C9.39643 21 9.03687 20.6389 9.03687 20.1935C9.03687 19.7482 9.39643 19.3871 9.83998 19.3871H12.9132C14.8328 19.3812 16.3875 17.82 16.3934 15.8925V9.17204H11.8424C10.2185 9.16614 8.90353 7.8457 8.89766 6.21505V1.64516H6.48833C4.56629 1.64516 3.00818 3.20976 3.00818 5.13978V7.98925C3.00818 8.43464 2.64861 8.7957 2.20507 8.7957C1.76152 8.7957 1.40196 8.43464 1.40196 7.98925V5.13978C1.3934 3.7796 1.92551 2.47218 2.88031 1.50735C3.83512 0.542512 5.13375 -2.71281e-05 6.48833 1.01737e-09H9.70077C9.9137 0.000188229 10.1178 0.0852769 10.2683 0.236559ZM10.5039 2.75391V6.21627C10.5039 6.95859 11.1031 7.56036 11.8424 7.56036H15.2904L10.5039 2.75391Z" fill="black"/>
</g>
<path id="Path" d="M10.494 13.8733C10.4514 13.801 10.3963 13.7369 10.3312 13.684L6.33922 9.64962C6.08838 9.39804 5.68201 9.39804 5.43117 9.64962C5.30872 9.76943 5.23965 9.93384 5.23965 10.1055C5.23965 10.2772 5.30872 10.4416 5.43117 10.5614L8.35235 13.5034H0.642489C0.287652 13.5034 0 13.7922 0 14.1485C0 14.5049 0.287652 14.7937 0.642489 14.7937H8.35235L5.43117 17.727C5.30872 17.8469 5.23965 18.0113 5.23965 18.183C5.23965 18.3546 5.30872 18.519 5.43117 18.6389C5.55155 18.7599 5.71486 18.828 5.8852 18.8281C6.05481 18.8244 6.21685 18.7569 6.33922 18.6389L10.3312 14.6045C10.3896 14.5417 10.436 14.4689 10.4683 14.3894C10.5433 14.2272 10.5525 14.0421 10.494 13.8733Z" fill="black"/>
</g>
</svg>
