<svg width="26" height="27" viewBox="0 0 26 27" fill="none" xmlns="http://www.w3.org/2000/svg">
<path id="Vector" d="M13 1C6.373 1 1 6.373 1 13C1 15.2512 1.63234 17.3501 2.71094 19.1504L1.10742 25L7.08203 23.4316C8.82935 24.4251 10.8465 25 13 25C19.627 25 25 19.627 25 13C25 6.373 19.627 1 13 1ZM8.89258 7.40234C9.08758 7.40234 9.28794 7.40116 9.46094 7.41016C9.67494 7.41516 9.90786 7.43083 10.1309 7.92383C10.3959 8.50983 10.9729 9.97991 11.0469 10.1289C11.1209 10.2779 11.1733 10.4534 11.0703 10.6484C10.9723 10.8484 10.9213 10.9695 10.7773 11.1465C10.6283 11.3185 10.4651 11.5321 10.3301 11.6621C10.1811 11.8111 10.0272 11.9745 10.1992 12.2715C10.3712 12.5685 10.9686 13.5421 11.8516 14.3281C12.9866 15.3421 13.9442 15.6537 14.2422 15.8027C14.5402 15.9517 14.7128 15.9285 14.8848 15.7285C15.0618 15.5335 15.6281 14.8644 15.8281 14.5664C16.0231 14.2684 16.2222 14.32 16.4922 14.418C16.7662 14.516 18.2274 15.2358 18.5254 15.3848C18.8234 15.5338 19.0187 15.6075 19.0937 15.7285C19.1707 15.8535 19.1708 16.4486 18.9238 17.1426C18.6768 17.8356 17.4639 18.5057 16.9199 18.5527C16.3709 18.6037 15.8586 18.7995 13.3516 17.8125C10.3276 16.6215 8.42048 13.5242 8.27148 13.3242C8.12248 13.1292 7.06055 11.7139 7.06055 10.2539C7.06055 8.78891 7.82866 8.07144 8.09766 7.77344C8.37166 7.47544 8.69258 7.40234 8.89258 7.40234Z" stroke="black" stroke-width="1.5"/>
</svg>
